<svg version="1.1" xmlns="http://www.w3.org/2000/svg" viewBox="0 0 350.70492863467075 606.9789334996664" width="350.70492863467075" height="606.9789334996664">
  <!-- svg-source:excalidraw -->
  
  <defs>
    <style class="style-fonts">
      @font-face {
        font-family: "Virgil";
        src: url("https://excalidraw.com/Virgil.woff2");
      }
      @font-face {
        font-family: "Cascadia";
        src: url("https://excalidraw.com/Cascadia.woff2");
      }
    </style>
    
  </defs>
  <rect x="0" y="0" width="350.70492863467075" height="606.9789334996664" fill="#ffffff"></rect><g mask="url(#mask-vxYS5fXrre3HywpngY7UZ)" stroke-linecap="round"><g transform="translate(195.57719000000003 191.12910500000007) rotate(0 0.0673919139527186 68.45309695609636)"><path d="M0.12 -0.05 C0.16 22.79, 0.11 114.24, 0.11 137.1 M0 -0.2 C0.04 22.59, 0.04 114.05, 0.05 136.9" stroke="#1e1e1e" stroke-width="2" fill="none"></path></g><g transform="translate(195.57719000000003 191.12910500000007) rotate(0 0.0673919139527186 68.45309695609636)"><path d="M-10.22 108.71 C-8.22 114.57, -5.87 120.18, 0.05 136.9 M-10.22 108.71 C-6.31 119.35, -2.51 130, 0.05 136.9" stroke="#1e1e1e" stroke-width="2" fill="none"></path></g><g transform="translate(195.57719000000003 191.12910500000007) rotate(0 0.0673919139527186 68.45309695609636)"><path d="M10.31 108.71 C8.17 114.59, 6.4 120.2, 0.05 136.9 M10.31 108.71 C6.43 119.36, 2.45 130.01, 0.05 136.9" stroke="#1e1e1e" stroke-width="2" fill="none"></path></g></g><mask id="mask-vxYS5fXrre3HywpngY7UZ"><rect x="0" y="0" fill="#fff" width="295.57719000000003" height="428.1291050000001"></rect><rect x="132.92724187988284" y="247.12910500000007" fill="#000" width="125.29989624023438" height="25" opacity="1"></rect></mask><g transform="translate(132.92724187988284 247.12910500000007) rotate(0 62.717340034069906 12.45309695609636)"><text x="62.64994812011719" y="0" font-family="Virgil, Segoe UI Emoji" font-size="20px" fill="#1e1e1e" text-anchor="middle" style="white-space: pre;" direction="ltr" dominant-baseline="text-before-edge">Change Color</text></g><g mask="url(#mask-FKBQcq8GtyzkYtgVm99xi)" stroke-linecap="round"><g transform="translate(191.89347189127028 378.4909265878639) rotate(0 2.0849814454347495 80.00618806812668)"><path d="M0.1 -0.11 C0.73 26.58, 3.26 133.44, 3.9 160.12 M-0.03 0.18 C0.64 26.81, 3.56 133.25, 4.2 159.91" stroke="#1e1e1e" stroke-width="2" fill="none"></path></g><g transform="translate(191.89347189127028 378.4909265878639) rotate(0 2.0849814454347495 80.00618806812668)"><path d="M-6.79 131.99 C-2.79 142.46, 1.85 153.19, 4.2 159.91 M-6.79 131.99 C-3.6 139.75, -0.61 147.66, 4.2 159.91" stroke="#1e1e1e" stroke-width="2" fill="none"></path></g><g transform="translate(191.89347189127028 378.4909265878639) rotate(0 2.0849814454347495 80.00618806812668)"><path d="M13.73 131.46 C9.89 142.16, 6.68 153.09, 4.2 159.91 M13.73 131.46 C11.15 139.36, 8.38 147.42, 4.2 159.91" stroke="#1e1e1e" stroke-width="2" fill="none"></path></g></g><mask id="mask-FKBQcq8GtyzkYtgVm99xi"><rect x="0" y="0" fill="#fff" width="295.8934718912703" height="638.4909265878639"></rect><rect x="147.84351461587966" y="433.4909265878639" fill="#000" width="92.09991455078125" height="50" opacity="1"></rect></mask><g transform="translate(147.84351461587966 433.4909265878639) rotate(0 46.134938720825375 25.006188068126683)"><text x="46.049957275390625" y="0" font-family="Virgil, Segoe UI Emoji" font-size="20px" fill="#1e1e1e" text-anchor="middle" style="white-space: pre;" direction="ltr" dominant-baseline="text-before-edge">Executing</text><text x="46.049957275390625" y="25" font-family="Virgil, Segoe UI Emoji" font-size="20px" fill="#1e1e1e" text-anchor="middle" style="white-space: pre;" direction="ltr" dominant-baseline="text-before-edge">Command</text></g><g transform="translate(49.98261382194141 39.86503999327084) rotate(0 125.36988830566406 25)"><text x="0" y="0" font-family="Virgil, Segoe UI Emoji" font-size="20px" fill="#1e1e1e" text-anchor="start" style="white-space: pre;" direction="ltr" dominant-baseline="text-before-edge">Client sends one of</text><text x="0" y="25" font-family="Virgil, Segoe UI Emoji" font-size="20px" fill="#1e1e1e" text-anchor="start" style="white-space: pre;" direction="ltr" dominant-baseline="text-before-edge">all the possible commands</text></g><g stroke-linecap="round" transform="translate(130.68385652348275 147.62910500000007) rotate(0 66.8933334765172 17.5)"><path d="M8.75 0 C43.77 -0.5, 78.75 -0.37, 125.04 0 M8.75 0 C54.5 -0.34, 99.72 -0.3, 125.04 0 M125.04 0 C130.84 -0.26, 133.85 2.56, 133.79 8.75 M125.04 0 C130.77 -0.41, 133.54 3.57, 133.79 8.75 M133.79 8.75 C133.4 15.15, 133.33 20.8, 133.79 26.25 M133.79 8.75 C133.8 12.64, 133.98 16.55, 133.79 26.25 M133.79 26.25 C134.17 31.85, 130.77 35.5, 125.04 35 M133.79 26.25 C134.29 31.65, 131.32 35.21, 125.04 35 M125.04 35 C86.47 34.51, 48.11 34.8, 8.75 35 M125.04 35 C99.78 34.83, 74.87 34.96, 8.75 35 M8.75 35 C3.01 35.35, 0.01 31.84, 0 26.25 M8.75 35 C2.95 35.05, -0.1 32.22, 0 26.25 M0 26.25 C0.35 20.24, -0.06 14, 0 8.75 M0 26.25 C-0.12 19.84, -0.09 13.99, 0 8.75 M0 8.75 C-0.42 3.19, 2.79 -0.23, 8.75 0 M0 8.75 C0.2 3.07, 2.55 -0.61, 8.75 0" stroke="#1e1e1e" stroke-width="1" fill="none"></path></g><g transform="translate(170.52721746582029 152.62910500000007) rotate(0 27.049972534179688 12.5)"><text x="27.049972534179688" y="0" font-family="Virgil, Segoe UI Emoji" font-size="20px" fill="#1e1e1e" text-anchor="middle" style="white-space: pre;" direction="ltr" dominant-baseline="text-before-edge">Client</text></g><g stroke-linecap="round" transform="translate(130.68385652348275 336.6291050000001) rotate(0 66.8933334765172 17.5)"><path d="M8.75 0 C54.12 0.52, 99.21 -0.19, 125.04 0 M8.75 0 C37.67 -0.39, 66.31 -0.31, 125.04 0 M125.04 0 C131.25 -0.07, 134.28 2.45, 133.79 8.75 M125.04 0 C131.43 -0.33, 134.4 2.69, 133.79 8.75 M133.79 8.75 C134.02 14.56, 133.9 19.92, 133.79 26.25 M133.79 8.75 C133.86 15.07, 133.69 21.67, 133.79 26.25 M133.79 26.25 C133.5 31.83, 131.33 35.1, 125.04 35 M133.79 26.25 C134.05 32.16, 131.49 35.64, 125.04 35 M125.04 35 C96.75 35.28, 69.31 34.82, 8.75 35 M125.04 35 C82.92 35.27, 40.63 35.21, 8.75 35 M8.75 35 C3.21 35.15, 0.16 31.66, 0 26.25 M8.75 35 C3.12 35.08, -0.32 32.6, 0 26.25 M0 26.25 C-0.22 21.83, -0.18 17.6, 0 8.75 M0 26.25 C-0.27 20.66, -0.09 15.07, 0 8.75 M0 8.75 C-0.3 2.91, 2.92 0.4, 8.75 0 M0 8.75 C-0.27 2.41, 3.03 0.35, 8.75 0" stroke="#1e1e1e" stroke-width="1" fill="none"></path></g><g transform="translate(158.53722723144529 341.6291050000001) rotate(0 39.03996276855469 12.5)"><text x="39.03996276855469" y="0" font-family="Virgil, Segoe UI Emoji" font-size="20px" fill="#1e1e1e" text-anchor="middle" style="white-space: pre;" direction="ltr" dominant-baseline="text-before-edge">Context</text></g><g stroke-linecap="round" transform="translate(130.68385652348275 548.6291050000001) rotate(0 66.8933334765172 17.5)"><path d="M8.75 0 C50.9 0.6, 94.48 -0.04, 125.04 0 M8.75 0 C39.88 -0.08, 70.83 0.01, 125.04 0 M125.04 0 C130.75 0.27, 134.28 2.95, 133.79 8.75 M125.04 0 C130.35 0, 133.44 3.52, 133.79 8.75 M133.79 8.75 C133.34 13.79, 133.42 18.89, 133.79 26.25 M133.79 8.75 C133.89 14.49, 133.69 20.53, 133.79 26.25 M133.79 26.25 C133.93 32.17, 130.74 34.73, 125.04 35 M133.79 26.25 C133.91 31.6, 130.36 34.4, 125.04 35 M125.04 35 C88.46 35.44, 52.92 34.73, 8.75 35 M125.04 35 C97.71 35.09, 71.23 34.97, 8.75 35 M8.75 35 C3.22 34.78, -0.12 32.59, 0 26.25 M8.75 35 C3.29 34.75, 0.19 32.37, 0 26.25 M0 26.25 C-0.04 19.12, -0.04 12.52, 0 8.75 M0 26.25 C-0.16 19.94, -0.03 13.17, 0 8.75 M0 8.75 C-0.54 3.48, 2.46 0.24, 8.75 0 M0 8.75 C0.46 3.41, 3.12 0.23, 8.75 0" stroke="#1e1e1e" stroke-width="1" fill="none"></path></g><g transform="translate(152.12723882812497 553.6291050000001) rotate(0 45.449951171875 12.5)"><text x="45.449951171875" y="0" font-family="Virgil, Segoe UI Emoji" font-size="20px" fill="#1e1e1e" text-anchor="middle" style="white-space: pre;" direction="ltr" dominant-baseline="text-before-edge">Visualizer</text></g><g stroke-linecap="round" transform="translate(86.23440524558697 211.19730419207588) rotate(0 47.2351925308821 17.5)"><path d="M8.75 0 C27.86 -0.74, 47.43 -0.52, 85.72 0 M8.75 0 C35 0.37, 60.94 0.43, 85.72 0 M85.72 0 C91.3 0.03, 94.78 3.18, 94.47 8.75 M85.72 0 C91.45 -0.33, 94.18 3.57, 94.47 8.75 M94.47 8.75 C94.03 15.92, 94.27 21.94, 94.47 26.25 M94.47 8.75 C94.5 15.83, 94.19 22.6, 94.47 26.25 M94.47 26.25 C94.84 32.22, 91.59 34.91, 85.72 35 M94.47 26.25 C94.84 31.9, 91.15 34.81, 85.72 35 M85.72 35 C59.35 34.75, 33.47 34.89, 8.75 35 M85.72 35 C59.73 35.21, 33.79 35.09, 8.75 35 M8.75 35 C2.95 34.93, -0.17 31.62, 0 26.25 M8.75 35 C3.52 35.25, -0.01 32.7, 0 26.25 M0 26.25 C0.5 20.5, 0.06 14.8, 0 8.75 M0 26.25 C-0.22 19.97, -0.05 13.49, 0 8.75 M0 8.75 C0.05 2.38, 2.58 0.07, 8.75 0 M0 8.75 C-0.08 2.82, 2.65 0, 8.75 0" stroke="#1e1e1e" stroke-width="1" fill="none"></path></g><g transform="translate(91.79963012510188 216.19730419207588) rotate(0 41.66996765136719 12.5)"><text x="41.66996765136719" y="0" font-family="Virgil, Segoe UI Emoji" font-size="20px" fill="#1e1e1e" text-anchor="middle" style="white-space: pre;" direction="ltr" dominant-baseline="text-before-edge">Command</text></g></svg>
