<svg version="1.1" xmlns="http://www.w3.org/2000/svg" viewBox="0 0 573.075609646665 640.9163360222828" width="573.075609646665" height="640.9163360222828">
  <!-- svg-source:excalidraw -->
  
  <defs>
    <style class="style-fonts">
      @font-face {
        font-family: "Virgil";
        src: url("https://excalidraw.com/Virgil.woff2");
      }
      @font-face {
        font-family: "Cascadia";
        src: url("https://excalidraw.com/Cascadia.woff2");
      }
    </style>
    
  </defs>
  <rect x="0" y="0" width="573.075609646665" height="640.9163360222828" fill="#ffffff"></rect><g stroke-linecap="round" transform="translate(200.91915293649078 49.15622318061554) rotate(0 77 27.5)"><path d="M13.75 0 C59.37 1.46, 103.54 0.73, 140.25 0 M13.75 0 C39.67 -0.47, 66.21 -1.01, 140.25 0 M140.25 0 C150.02 -1.71, 153.96 2.83, 154 13.75 M140.25 0 C147.3 1.07, 154.8 4.58, 154 13.75 M154 13.75 C154.32 23.86, 155.2 33.7, 154 41.25 M154 13.75 C154.05 24.97, 153.9 34.63, 154 41.25 M154 41.25 C155.39 50.3, 150.75 53.63, 140.25 55 M154 41.25 C152.42 49.12, 149.98 52.98, 140.25 55 M140.25 55 C112.16 56.24, 78.98 56.7, 13.75 55 M140.25 55 C109.69 55.2, 81.22 55.08, 13.75 55 M13.75 55 C3.27 56.09, 1.06 48.6, 0 41.25 M13.75 55 C4.5 55.9, -1.19 49.04, 0 41.25 M0 41.25 C-1.55 32.55, -0.34 23.28, 0 13.75 M0 41.25 C0.07 34.06, -0.62 26.36, 0 13.75 M0 13.75 C0.66 5.35, 5.02 0.58, 13.75 0 M0 13.75 C0.09 5.26, 5.03 1.5, 13.75 0" stroke="#1e1e1e" stroke-width="2" fill="none"></path></g><g transform="translate(232.46920176461578 64.15622318061554) rotate(0 45.449951171875 12.5)"><text x="45.449951171875" y="0" font-family="Virgil, Segoe UI Emoji" font-size="20px" fill="#1e1e1e" text-anchor="middle" style="white-space: pre;" direction="ltr" dominant-baseline="text-before-edge">Visualizer</text></g><g stroke-linecap="round" transform="translate(188.77629559408695 542.4743702164144) rotate(0 107 30)"><path d="M15 0 C79.77 -0.85, 144.5 -1.78, 199 0 M15 0 C83.92 -0.38, 152.16 0.39, 199 0 M199 0 C207.96 -0.95, 214.53 6.07, 214 15 M199 0 C209.37 1.57, 214.48 6.9, 214 15 M214 15 C214.83 27.79, 215.19 38.9, 214 45 M214 15 C213.08 21.8, 214.4 29.88, 214 45 M214 45 C213.4 54.96, 207.84 61.35, 199 60 M214 45 C212.08 56.05, 211.28 61.26, 199 60 M199 60 C145.45 59.18, 94.06 58.74, 15 60 M199 60 C146 61.15, 94.34 61.01, 15 60 M15 60 C6.91 60.19, -0.13 54.24, 0 45 M15 60 C6.88 57.73, -0.38 53.2, 0 45 M0 45 C1.68 34.15, 1.44 21.94, 0 15 M0 45 C1.13 38.15, -0.63 31.2, 0 15 M0 15 C1.27 5.05, 5.79 -0.8, 15 0 M0 15 C1.43 6, 4.72 -1.05, 15 0" stroke="#1e1e1e" stroke-width="2" fill="none"></path></g><g transform="translate(206.90637677084476 559.9743702164144) rotate(0 88.86991882324219 12.5)"><text x="88.86991882324219" y="0" font-family="Virgil, Segoe UI Emoji" font-size="20px" fill="#1e1e1e" text-anchor="middle" style="white-space: pre;" direction="ltr" dominant-baseline="text-before-edge">UI Color-Selection</text></g><g stroke-linecap="round" transform="translate(29.926082389420458 244.08035965582073) rotate(0 77 27.5)"><path d="M13.75 0 C62.88 -0.99, 112.1 2.28, 140.25 0 M13.75 0 C45.05 1.52, 77.69 -0.4, 140.25 0 M140.25 0 C151.39 0.92, 152.59 3.83, 154 13.75 M140.25 0 C148.01 0.35, 156 2.81, 154 13.75 M154 13.75 C151.98 22.05, 153.48 33.76, 154 41.25 M154 13.75 C153.34 23.61, 154.54 34.47, 154 41.25 M154 41.25 C155.82 49.38, 148.29 54.7, 140.25 55 M154 41.25 C153.39 50.32, 150.71 53.17, 140.25 55 M140.25 55 C93.09 52.45, 44.41 52.95, 13.75 55 M140.25 55 C104.5 55.6, 68.66 55.19, 13.75 55 M13.75 55 C3.35 56.83, -0.67 50.85, 0 41.25 M13.75 55 C4.89 54.23, -2.21 50.44, 0 41.25 M0 41.25 C-1.4 32.25, -1.75 19.03, 0 13.75 M0 41.25 C0.37 35.65, -0.07 27.89, 0 13.75 M0 13.75 C-1.01 4.64, 3.92 1.76, 13.75 0 M0 13.75 C-0.81 4.65, 5.8 -0.6, 13.75 0" stroke="#1e1e1e" stroke-width="2" fill="none"></path></g><g transform="translate(67.88611962086577 259.08035965582076) rotate(0 39.03996276855469 12.5)"><text x="39.03996276855469" y="0" font-family="Virgil, Segoe UI Emoji" font-size="20px" fill="#1e1e1e" text-anchor="middle" style="white-space: pre;" direction="ltr" dominant-baseline="text-before-edge">Context</text></g><g mask="url(#mask-xOKw9tHHFC2J398FxAhH6)" stroke-linecap="round"><g transform="translate(68.22259276703774 436.4396906719421) rotate(0 3.2854200425756233 -63.472039458703335)"><path d="M-0.09 0.09 C-0.09 -10.83, -1.22 -44.46, -0.02 -65.65 C1.19 -86.84, 5.94 -116.84, 7.14 -127.03 M0.17 -0.01 C0.21 -10.89, -0.87 -44.3, 0.28 -65.46 C1.43 -86.61, 5.98 -116.65, 7.07 -126.93" stroke="#1e1e1e" stroke-width="2" fill="none"></path></g><g transform="translate(68.22259276703774 436.4396906719421) rotate(0 3.2854200425756233 -63.472039458703335)"><path d="M13.75 -97.68 C11.86 -107.16, 9.52 -116, 7.07 -126.93 M13.75 -97.68 C12.22 -103.94, 11.02 -109.91, 7.07 -126.93" stroke="#1e1e1e" stroke-width="2" fill="none"></path></g><g transform="translate(68.22259276703774 436.4396906719421) rotate(0 3.2854200425756233 -63.472039458703335)"><path d="M-6.62 -100.23 C-2.09 -108.89, 1.99 -116.92, 7.07 -126.93 M-6.62 -100.23 C-3.87 -105.97, -0.81 -111.41, 7.07 -126.93" stroke="#1e1e1e" stroke-width="2" fill="none"></path></g></g><mask id="mask-xOKw9tHHFC2J398FxAhH6"><rect x="0" y="0" fill="#fff" width="175.30186953832185" height="663.3240827472434"></rect><rect x="21.23823694090038" y="358.3210697693835" fill="#000" width="94.19992065429688" height="25" opacity="1"></rect></mask><g transform="translate(21.23823694090038 358.3210697693835) rotate(0 50.26977586871298 14.646581443855325)"><text x="47.09996032714844" y="0" font-family="Virgil, Segoe UI Emoji" font-size="20px" fill="#1e1e1e" text-anchor="middle" style="white-space: pre;" direction="ltr" dominant-baseline="text-before-edge">Commands</text></g><g stroke-linecap="round" transform="translate(410.7623472640304 247.7769687848823) rotate(0 77 27.5)"><path d="M13.75 0 C45.42 -0.18, 75.68 -2.15, 140.25 0 M13.75 0 C59.27 -1.4, 106.54 -0.99, 140.25 0 M140.25 0 C150.73 1.07, 155.75 5.62, 154 13.75 M140.25 0 C151.57 -0.97, 154.34 6.51, 154 13.75 M154 13.75 C154.04 24.32, 152.28 35.07, 154 41.25 M154 13.75 C153.24 21.93, 154.95 29.92, 154 41.25 M154 41.25 C152.66 49.55, 150.25 56.8, 140.25 55 M154 41.25 C154.61 50.64, 147.14 54.63, 140.25 55 M140.25 55 C114.15 57.1, 85.76 56.13, 13.75 55 M140.25 55 C105.28 54.94, 70.98 53.94, 13.75 55 M13.75 55 C3.96 56.2, -0.56 52.33, 0 41.25 M13.75 55 C5.35 54.68, -0.79 52.48, 0 41.25 M0 41.25 C1.56 32.53, 1.8 21.67, 0 13.75 M0 41.25 C-0.33 34.96, -0.05 30.81, 0 13.75 M0 13.75 C1.91 4.67, 5.63 1.73, 13.75 0 M0 13.75 C-2.04 5.93, 6.87 0.11, 13.75 0" stroke="#1e1e1e" stroke-width="2" fill="none"></path></g><g transform="translate(430.0424070784835 262.77696878488234) rotate(0 57.719940185546875 12.5)"><text x="57.719940185546875" y="0" font-family="Virgil, Segoe UI Emoji" font-size="20px" fill="#1e1e1e" text-anchor="middle" style="white-space: pre;" direction="ltr" dominant-baseline="text-before-edge">useMessage</text></g><g mask="url(#mask-U7Iu5KKH6Dx2mE1qZlAYN)" stroke-linecap="round"><g transform="translate(366.7498916860793 77.19766386081693) rotate(0 67.64410438779552 77.98584829209281)"><path d="M0.65 0.3 C15.85 6.83, 70.09 13.82, 92.2 39.69 C114.32 65.56, 126.31 136.15, 133.35 155.53 M-0.47 -0.58 C14.52 5.55, 68.76 11.76, 91.47 37.94 C114.17 64.13, 128.55 136.7, 135.76 156.55" stroke="#1e1e1e" stroke-width="2" fill="none"></path></g><g transform="translate(366.7498916860793 77.19766386081693) rotate(0 67.64410438779552 77.98584829209281)"><path d="M118.11 132.29 C125.47 142.13, 132.9 149.2, 135.76 156.55 M118.11 132.29 C121.68 139.03, 126.93 144.94, 135.76 156.55" stroke="#1e1e1e" stroke-width="2" fill="none"></path></g><g transform="translate(366.7498916860793 77.19766386081693) rotate(0 67.64410438779552 77.98584829209281)"><path d="M137.84 126.62 C137.68 138.73, 137.59 147.97, 135.76 156.55 M137.84 126.62 C136.42 134.78, 136.68 142.13, 135.76 156.55" stroke="#1e1e1e" stroke-width="2" fill="none"></path></g></g><mask id="mask-U7Iu5KKH6Dx2mE1qZlAYN"><rect x="0" y="0" fill="#fff" width="601.0075313944083" height="333.2899146355414"></rect><rect x="425.3627558135215" y="103.66156889224746" fill="#000" width="66.37994384765625" height="25" opacity="1"></rect></mask><g transform="translate(425.3627558135215 103.66156889224746) rotate(0 9.031240260353314 51.52194326066228)"><text x="33.189971923828125" y="0" font-family="Virgil, Segoe UI Emoji" font-size="20px" fill="#1e1e1e" text-anchor="middle" style="white-space: pre;" direction="ltr" dominant-baseline="text-before-edge">Events</text></g><g mask="url(#mask-8Z3M2ceV302tXhIwfUsSm)" stroke-linecap="round"><g transform="translate(491.50798648803584 312.94425922130375) rotate(0 -37.94078261254623 130.02754983897927)"><path d="M0.84 0.26 C0.48 24.59, 10.41 102.24, -2.9 145.41 C-16.21 188.58, -66.57 240.46, -79.01 259.28 M-0.18 -0.66 C-0.53 23.85, 10.06 102.91, -3.23 146.47 C-16.52 190.03, -67.09 241.96, -79.94 260.71" stroke="#1e1e1e" stroke-width="2" fill="none"></path></g><g transform="translate(491.50798648803584 312.94425922130375) rotate(0 -37.94078261254623 130.02754983897927)"><path d="M-70.37 232.28 C-72.34 241.01, -76.55 245.21, -79.94 260.71 M-70.37 232.28 C-73.64 241.09, -75.56 250.84, -79.94 260.71" stroke="#1e1e1e" stroke-width="2" fill="none"></path></g><g transform="translate(491.50798648803584 312.94425922130375) rotate(0 -37.94078261254623 130.02754983897927)"><path d="M-54.34 245.08 C-60.02 250.91, -68.01 252.09, -79.94 260.71 M-54.34 245.08 C-62.83 249.71, -69.87 255.38, -79.94 260.71" stroke="#1e1e1e" stroke-width="2" fill="none"></path></g></g><mask id="mask-8Z3M2ceV302tXhIwfUsSm"><rect x="0" y="0" fill="#fff" width="670.1992099298084" height="671.9954937361967"></rect><rect x="455.04492129542496" y="446.7724106873476" fill="#000" width="64.75994873046875" height="25" opacity="1"></rect></mask><g transform="translate(455.04492129542496 446.7724106873476) rotate(0 -1.4777174199353453 -3.800601627064566)"><text x="32.379974365234375" y="0" font-family="Virgil, Segoe UI Emoji" font-size="20px" fill="#1e1e1e" text-anchor="middle" style="white-space: pre;" direction="ltr" dominant-baseline="text-before-edge">Render</text></g><g mask="url(#mask-0oxo6jRyvmdtV8bHXxdtW)" stroke-linecap="round"><g transform="translate(83.1506404268696 230.98830193971287) rotate(0 52.164265523473254 -74.15008746347209)"><path d="M-0.73 -0.46 C2.73 -14.79, 3.3 -61.8, 20.93 -86.37 C38.56 -110.93, 90.91 -137.74, 105.05 -147.84 M1.09 -1.74 C4.41 -15.83, 3.03 -60.6, 20.19 -84.79 C37.35 -108.99, 89.71 -136.72, 104.04 -146.89" stroke="#1e1e1e" stroke-width="2" fill="none"></path></g><g transform="translate(83.1506404268696 230.98830193971287) rotate(0 52.164265523473254 -74.15008746347209)"><path d="M85.64 -123.2 C90.74 -129.88, 97.4 -138.79, 104.04 -146.89 M85.64 -123.2 C90.17 -129.47, 94.33 -135.16, 104.04 -146.89" stroke="#1e1e1e" stroke-width="2" fill="none"></path></g><g transform="translate(83.1506404268696 230.98830193971287) rotate(0 52.164265523473254 -74.15008746347209)"><path d="M74.71 -140.57 C83.2 -141.72, 93.3 -145.16, 104.04 -146.89 M74.71 -140.57 C81.94 -142.65, 88.75 -144.13, 104.04 -146.89" stroke="#1e1e1e" stroke-width="2" fill="none"></path></g></g><mask id="mask-0oxo6jRyvmdtV8bHXxdtW"><rect x="0" y="0" fill="#fff" width="288.6806619661898" height="478.1409194955473"></rect><rect x="62.01069431482256" y="132.05973051114142" fill="#000" width="83.33993530273438" height="25" opacity="1"></rect></mask><g transform="translate(62.01069431482256 132.0597305111414) rotate(0 73.30421163552029 24.778483965099383)"><text x="41.66996765136719" y="0" font-family="Virgil, Segoe UI Emoji" font-size="20px" fill="#1e1e1e" text-anchor="middle" style="white-space: pre;" direction="ltr" dominant-baseline="text-before-edge">Command</text></g><g stroke-linecap="round"><g transform="translate(177.2520905376183 572.26854307198) rotate(0 -48.71205580905449 -39.533066134537435)"><path d="M0.42 -1.15 C-8.94 -4.28, -40.27 -6.65, -56.47 -19.78 C-72.66 -32.91, -90.05 -69.85, -96.76 -79.93 M-0.82 0.86 C-9.76 -1.97, -37.98 -4.88, -54.15 -18.21 C-70.32 -31.53, -90.74 -68.82, -97.85 -79.08" stroke="#1e1e1e" stroke-width="2" fill="none"></path></g><g transform="translate(177.2520905376183 572.26854307198) rotate(0 -48.71205580905449 -39.533066134537435)"><path d="M-74.16 -60.66 C-82.42 -66.89, -86.89 -71.71, -97.85 -79.08 M-74.16 -60.66 C-79.15 -65.54, -85.2 -68.7, -97.85 -79.08" stroke="#1e1e1e" stroke-width="2" fill="none"></path></g><g transform="translate(177.2520905376183 572.26854307198) rotate(0 -48.71205580905449 -39.533066134537435)"><path d="M-91.54 -49.75 C-94.94 -59.03, -94.64 -66.85, -97.85 -79.08 M-91.54 -49.75 C-92.54 -56.92, -94.66 -62.55, -97.85 -79.08" stroke="#1e1e1e" stroke-width="2" fill="none"></path></g></g><mask></mask><g stroke-linecap="round" transform="translate(19.39494768047541 447.4168733682843) rotate(0 76.78571428571428 17.5)"><path d="M8.75 0 C44.01 0.37, 79.42 -0.3, 144.82 0 M8.75 0 C49.76 -0.59, 90.11 -0.22, 144.82 0 M144.82 0 C150.22 0.02, 153.46 2.97, 153.57 8.75 M144.82 0 C151.25 -0.61, 153.48 3.51, 153.57 8.75 M153.57 8.75 C153.91 15.84, 153.48 22.82, 153.57 26.25 M153.57 8.75 C153.74 12.17, 153.74 15.75, 153.57 26.25 M153.57 26.25 C153.66 32.17, 151.13 35.55, 144.82 35 M153.57 26.25 C153.86 31.95, 151.17 35.17, 144.82 35 M144.82 35 C102.5 35.33, 60.59 34.77, 8.75 35 M144.82 35 C94.76 34.93, 44.85 34.84, 8.75 35 M8.75 35 C3.39 35.48, -0.19 31.88, 0 26.25 M8.75 35 C2.96 35.06, 0.05 31.49, 0 26.25 M0 26.25 C0.43 19.91, -0.25 12.67, 0 8.75 M0 26.25 C-0.04 22.45, -0.13 18.17, 0 8.75 M0 8.75 C0.49 2.46, 3.19 0.54, 8.75 0 M0 8.75 C-0.18 2.72, 2.79 0.22, 8.75 0" stroke="#1e1e1e" stroke-width="2" fill="none"></path></g><g transform="translate(35.170697976931876 452.4168733682843) rotate(0 61.00996398925781 12.5)"><text x="61.00996398925781" y="0" font-family="Virgil, Segoe UI Emoji" font-size="20px" fill="#1e1e1e" text-anchor="middle" style="white-space: pre;" direction="ltr" dominant-baseline="text-before-edge">On UI event</text></g></svg>
