<svg version="1.1" xmlns="http://www.w3.org/2000/svg" viewBox="0 0 749.8185546778797 783.7389178656883" width="749.8185546778797" height="783.7389178656883">
  <!-- svg-source:excalidraw -->
  
  <defs>
    <style class="style-fonts">
      @font-face {
        font-family: "Virgil";
        src: url("https://excalidraw.com/Virgil.woff2");
      }
      @font-face {
        font-family: "Cascadia";
        src: url("https://excalidraw.com/Cascadia.woff2");
      }
    </style>
    
  </defs>
  <rect x="0" y="0" width="749.8185546778797" height="783.7389178656883" fill="#ffffff"></rect><g stroke-linecap="round" transform="translate(371.032001873947 81.31589189300121) rotate(0 77 27.5)"><path d="M13.75 0 C40.51 -1.05, 71.15 -1.53, 140.25 0 M13.75 0 C54.04 -0.66, 94.38 -1.62, 140.25 0 M140.25 0 C150.27 0.51, 154.72 3.51, 154 13.75 M140.25 0 C149.17 -1.89, 151.93 3.6, 154 13.75 M154 13.75 C155.32 20.96, 152.83 28.67, 154 41.25 M154 13.75 C153.81 24.87, 153.54 34.22, 154 41.25 M154 41.25 C155.94 50.06, 150.16 53.52, 140.25 55 M154 41.25 C153.08 51.56, 149.59 56.67, 140.25 55 M140.25 55 C105.14 56.92, 67.08 54.4, 13.75 55 M140.25 55 C114.28 53.68, 87.95 54.37, 13.75 55 M13.75 55 C4.87 53.7, -0.92 49.37, 0 41.25 M13.75 55 C3.41 54.2, -2.1 48.68, 0 41.25 M0 41.25 C-1.58 30.85, -0.25 22.11, 0 13.75 M0 41.25 C-0.73 32.02, -0.7 24.41, 0 13.75 M0 13.75 C-1.13 3.82, 5.9 0.15, 13.75 0 M0 13.75 C0.96 3.48, 6.53 -0.8, 13.75 0" stroke="#1e1e1e" stroke-width="2" fill="none"></path></g><g transform="translate(402.582050702072 96.31589189300121) rotate(0 45.449951171875 12.5)"><text x="45.449951171875" y="0" font-family="Virgil, Segoe UI Emoji" font-size="20px" fill="#1e1e1e" text-anchor="middle" style="white-space: pre;" direction="ltr" dominant-baseline="text-before-edge">Visualizer</text></g><g stroke-linecap="round" transform="translate(217.39820025885643 584.5594280063365) rotate(0 107.00000000000001 30)"><path d="M15 0 C71.31 -1.02, 128.45 -0.1, 199 0 M15 0 C77.49 1.35, 139.48 0.55, 199 0 M199 0 C208.79 -1.65, 212.2 4.14, 214 15 M199 0 C208.33 0.57, 214.45 6.44, 214 15 M214 15 C215.45 23.37, 214.4 31.97, 214 45 M214 15 C214.84 25.69, 214.24 35.99, 214 45 M214 45 C213.2 56, 209.15 61.45, 199 60 M214 45 C213.76 55.05, 208.89 61.78, 199 60 M199 60 C123.79 59.4, 51.38 60.67, 15 60 M199 60 C158.73 59.13, 117.71 59.25, 15 60 M15 60 C3.98 59.3, -1.83 53.49, 0 45 M15 60 C5.37 62.25, 0.77 53.49, 0 45 M0 45 C0.44 38.34, 0.44 30.62, 0 15 M0 45 C-0.34 36.72, 0.88 29.28, 0 15 M0 15 C0.83 4.04, 6.69 -0.7, 15 0 M0 15 C-0.39 7.26, 2.91 0.65, 15 0" stroke="#1e1e1e" stroke-width="2" fill="none"></path></g><g transform="translate(235.52828143561425 602.0594280063365) rotate(0 88.86991882324219 12.5)"><text x="88.86991882324219" y="0" font-family="Virgil, Segoe UI Emoji" font-size="20px" fill="#1e1e1e" text-anchor="middle" style="white-space: pre;" direction="ltr" dominant-baseline="text-before-edge">UI Color-Selection</text></g><g stroke-linecap="round" transform="translate(71.92076271722647 402.9912946910979) rotate(0 77 27.5)"><path d="M13.75 0 C43.65 -0.54, 70.87 1.16, 140.25 0 M13.75 0 C54.85 -0.14, 95.26 0.25, 140.25 0 M140.25 0 C148.83 0.49, 154.39 5.84, 154 13.75 M140.25 0 C149.14 -1.42, 154.02 6.46, 154 13.75 M154 13.75 C155.32 20.77, 153.05 31.45, 154 41.25 M154 13.75 C153.7 22.01, 154.18 30, 154 41.25 M154 41.25 C153.79 50.46, 149.32 56.54, 140.25 55 M154 41.25 C156.28 50.57, 148.79 52.93, 140.25 55 M140.25 55 C101.33 57.35, 65.37 56.02, 13.75 55 M140.25 55 C109.98 53.99, 79.82 53.58, 13.75 55 M13.75 55 C4.9 56.96, 0.67 49.1, 0 41.25 M13.75 55 C2.61 55.02, -2.03 50.93, 0 41.25 M0 41.25 C-0.8 31.87, 1.71 24.28, 0 13.75 M0 41.25 C0.24 33.57, 0.67 26.51, 0 13.75 M0 13.75 C-0.34 6.55, 2.76 0.56, 13.75 0 M0 13.75 C-1.65 6.75, 4.8 0.98, 13.75 0" stroke="#1e1e1e" stroke-width="2" fill="none"></path></g><g transform="translate(109.88079994867178 417.9912946910979) rotate(0 39.03996276855469 12.5)"><text x="39.03996276855469" y="0" font-family="Virgil, Segoe UI Emoji" font-size="20px" fill="#1e1e1e" text-anchor="middle" style="white-space: pre;" direction="ltr" dominant-baseline="text-before-edge">Context</text></g><g stroke-linecap="round" transform="translate(537.9069296248394 338.5387316685235) rotate(0 77 27.5)"><path d="M13.75 0 C46.9 0.18, 77.95 -0.76, 140.25 0 M13.75 0 C40.99 0.79, 69.01 1.17, 140.25 0 M140.25 0 C149.18 -1.24, 154.02 6.22, 154 13.75 M140.25 0 C149.1 0.67, 153.65 6.01, 154 13.75 M154 13.75 C153.5 21.57, 152.38 27.1, 154 41.25 M154 13.75 C153.92 23.39, 153.97 33.76, 154 41.25 M154 41.25 C155.98 50.55, 148.88 53.2, 140.25 55 M154 41.25 C153.88 49.49, 150.76 53.15, 140.25 55 M140.25 55 C90.8 54.26, 42.89 54.16, 13.75 55 M140.25 55 C106.86 55.02, 73.48 53.39, 13.75 55 M13.75 55 C2.87 55.02, -1.76 50.86, 0 41.25 M13.75 55 C4.31 55.51, -1.75 49.57, 0 41.25 M0 41.25 C-1.01 36.32, -0.1 29.6, 0 13.75 M0 41.25 C-0.4 35.3, -1.14 27.67, 0 13.75 M0 13.75 C-1.43 6.47, 4.77 0.85, 13.75 0 M0 13.75 C-1.53 6.04, 2.34 -1.52, 13.75 0" stroke="#1e1e1e" stroke-width="2" fill="none"></path></g><g transform="translate(557.1869894392926 353.5387316685235) rotate(0 57.719940185546875 12.5)"><text x="57.719940185546875" y="0" font-family="Virgil, Segoe UI Emoji" font-size="20px" fill="#1e1e1e" text-anchor="middle" style="white-space: pre;" direction="ltr" dominant-baseline="text-before-edge">useMessage</text></g><g mask="url(#mask-MHX8MjHUi6T27kk_WLZry)" stroke-linecap="round"><g transform="translate(492.7192654768851 146.46270157941876) rotate(0 57.336682936943944 89.76522106678658)"><path d="M-0.13 -0.99 C11.76 12.26, 52.37 48.86, 71.78 78.86 C91.19 108.87, 108.8 162.27, 116.33 179.05 M-1.65 1.11 C10.56 14.57, 54.42 50.23, 73.92 80.13 C93.43 110.03, 108.15 164.32, 115.38 180.52" stroke="#1e1e1e" stroke-width="2" fill="none"></path></g><g transform="translate(492.7192654768851 146.46270157941876) rotate(0 57.336682936943944 89.76522106678658)"><path d="M96.08 157.55 C100.8 163.49, 108.08 172.43, 115.38 180.52 M96.08 157.55 C102.27 164.27, 108.67 173.16, 115.38 180.52" stroke="#1e1e1e" stroke-width="2" fill="none"></path></g><g transform="translate(492.7192654768851 146.46270157941876) rotate(0 57.336682936943944 89.76522106678658)"><path d="M115.36 150.52 C113.56 158.8, 114.35 170.11, 115.38 180.52 M115.36 150.52 C115.3 159.64, 115.44 170.82, 115.38 180.52" stroke="#1e1e1e" stroke-width="2" fill="none"></path></g></g><mask id="mask-MHX8MjHUi6T27kk_WLZry"><rect x="0" y="0" fill="#fff" width="709.3962860568413" height="425.212019925641"></rect><rect x="497.49721760973193" y="213.33851555124681" fill="#000" width="136.15988159179688" height="25" opacity="1"></rect></mask><g transform="translate(497.49721760973193 213.33851555124681) rotate(0 52.55873080409707 22.88940709495853)"><text x="68.07994079589844" y="0" font-family="Virgil, Segoe UI Emoji" font-size="20px" fill="#1e1e1e" text-anchor="middle" style="white-space: pre;" direction="ltr" dominant-baseline="text-before-edge">Color Changes</text></g><g mask="url(#mask-Cw8MI3pXyAHkhRoPdkR07)" stroke-linecap="round"><g transform="translate(599.4316249893642 405.6710515777427) rotate(0 -77.77427063950589 104.21836685868101)"><path d="M-0.35 0.3 C-5.06 22.31, -3.36 96.92, -29.36 131.56 C-55.37 166.19, -135.23 195.06, -156.38 208.1 M1.67 -0.59 C-3.09 21.12, -3.7 94.89, -30.18 129.83 C-56.67 164.77, -136.25 196.04, -157.22 209.03" stroke="#1e1e1e" stroke-width="2" fill="none"></path></g><g transform="translate(599.4316249893642 405.6710515777427) rotate(0 -77.77427063950589 104.21836685868101)"><path d="M-136.81 187.04 C-140.69 191.99, -144.21 195.98, -157.22 209.03 M-136.81 187.04 C-141.8 192.74, -146.68 198.3, -157.22 209.03" stroke="#1e1e1e" stroke-width="2" fill="none"></path></g><g transform="translate(599.4316249893642 405.6710515777427) rotate(0 -77.77427063950589 104.21836685868101)"><path d="M-127.45 205.31 C-133.22 206.39, -138.71 206.54, -157.22 209.03 M-127.45 205.31 C-134.67 206.73, -141.78 207.94, -157.22 209.03" stroke="#1e1e1e" stroke-width="2" fill="none"></path></g></g><mask id="mask-Cw8MI3pXyAHkhRoPdkR07"><rect x="0" y="0" fill="#fff" width="855.6624793020908" height="714.5153348436263"></rect><rect x="537.4547576442998" y="523.9746451357503" fill="#000" width="64.75994873046875" height="25" opacity="1"></rect></mask><g transform="translate(537.4547576442998 523.9746451357503) rotate(0 -15.797403294441466 -14.085226699326597)"><text x="32.379974365234375" y="0" font-family="Virgil, Segoe UI Emoji" font-size="20px" fill="#1e1e1e" text-anchor="middle" style="white-space: pre;" direction="ltr" dominant-baseline="text-before-edge">Render</text></g><g mask="url(#mask-5vXVRcKAeq9ZYiDZhOOuY)" stroke-linecap="round"><g transform="translate(221.1190536411293 577.7546697333562) rotate(0 -34.475823174702185 -56.16632919136431)"><path d="M-0.14 -0.74 C-8.04 -7.58, -35.85 -21.8, -47.15 -40.29 C-58.45 -58.77, -64.48 -99.83, -67.96 -111.66 M-1.68 1.48 C-9.75 -5.74, -36.9 -22.68, -48.09 -41.89 C-59.28 -61.11, -65.52 -101.89, -68.81 -113.82" stroke="#1e1e1e" stroke-width="2" fill="none"></path></g><g transform="translate(221.1190536411293 577.7546697333562) rotate(0 -34.475823174702185 -56.16632919136431)"><path d="M-52.68 -88.52 C-59.23 -96.61, -61.52 -104.98, -68.81 -113.82 M-52.68 -88.52 C-58.38 -97.26, -62.29 -105.25, -68.81 -113.82" stroke="#1e1e1e" stroke-width="2" fill="none"></path></g><g transform="translate(221.1190536411293 577.7546697333562) rotate(0 -34.475823174702185 -56.16632919136431)"><path d="M-72.71 -84.07 C-72.89 -93.56, -68.77 -103.35, -68.81 -113.82 M-72.71 -84.07 C-71.81 -94.4, -69.13 -103.85, -68.81 -113.82" stroke="#1e1e1e" stroke-width="2" fill="none"></path></g></g><mask id="mask-5vXVRcKAeq9ZYiDZhOOuY"><rect x="0" y="0" fill="#fff" width="388.9125704526458" height="789.7613496828185"></rect><rect x="105.61840336185855" y="523.9890508046071" fill="#000" width="136.6798858642578" height="25" opacity="1"></rect></mask><g transform="translate(105.61840336185855 523.9890508046071) rotate(0 81.02482710456857 -2.400710262615263)"><text x="68.3399429321289" y="0" font-family="Virgil, Segoe UI Emoji" font-size="20px" fill="#1e1e1e" text-anchor="middle" style="white-space: pre;" direction="ltr" dominant-baseline="text-before-edge">Changed Color</text></g><g mask="url(#mask-37URb4KlWMA3cezypQMOM)" stroke-linecap="round"><g transform="translate(141.537558661689 389.11184034478805) rotate(0 106.84045667930083 -140.68777989412413)"><path d="M-0.16 0.35 C3.2 -29.66, -16.1 -132.04, 20.17 -179.05 C56.43 -226.07, 184.27 -264.68, 217.42 -281.73 M-1.71 -0.51 C1.48 -30.94, -17.23 -134.08, 19.12 -180.79 C55.47 -227.49, 183.53 -264.14, 216.39 -280.73" stroke="#1e1e1e" stroke-width="2" fill="none"></path></g><g transform="translate(141.537558661689 389.11184034478805) rotate(0 106.84045667930083 -140.68777989412413)"><path d="M194.02 -260.74 C201.17 -267.04, 208.56 -273.6, 216.39 -280.73 M194.02 -260.74 C199.75 -266.41, 204.53 -270.13, 216.39 -280.73" stroke="#1e1e1e" stroke-width="2" fill="none"></path></g><g transform="translate(141.537558661689 389.11184034478805) rotate(0 106.84045667930083 -140.68777989412413)"><path d="M186.4 -279.8 C196 -280.35, 205.69 -281.17, 216.39 -280.73 M186.4 -279.8 C194.21 -280.72, 200.88 -279.71, 216.39 -280.73" stroke="#1e1e1e" stroke-width="2" fill="none"></path></g></g><mask id="mask-37URb4KlWMA3cezypQMOM"><rect x="0" y="0" fill="#fff" width="459.473884273604" height="770.2166989101695"></rect><rect x="87.63749201618043" y="171.8116435838093" fill="#000" width="148.49984741210938" height="75" opacity="1"></rect></mask><g transform="translate(87.63749201618043 171.8116435838093) rotate(0 160.74052332480937 76.6124168668546)"><text x="74.24992370605469" y="0" font-family="Virgil, Segoe UI Emoji" font-size="20px" fill="#1e1e1e" text-anchor="middle" style="white-space: pre;" direction="ltr" dominant-baseline="text-before-edge">PostMessage({</text><text x="74.24992370605469" y="25" font-family="Virgil, Segoe UI Emoji" font-size="20px" fill="#1e1e1e" text-anchor="middle" style="white-space: pre;" direction="ltr" dominant-baseline="text-before-edge">"Color": "Color"</text><text x="74.24992370605469" y="50" font-family="Virgil, Segoe UI Emoji" font-size="20px" fill="#1e1e1e" text-anchor="middle" style="white-space: pre;" direction="ltr" dominant-baseline="text-before-edge">})</text></g><g transform="translate(268.2797609882716 333.1085003700573) rotate(0 109.61991119384766 12.5)"><text x="0" y="0" font-family="Virgil, Segoe UI Emoji" font-size="20px" fill="#1e1e1e" text-anchor="start" style="white-space: pre;" direction="ltr" dominant-baseline="text-before-edge">User Interaction Loop</text></g></svg>
