<svg version="1.1" xmlns="http://www.w3.org/2000/svg" viewBox="0 0 459.58204388667934 631.873921429931" width="459.58204388667934" height="631.873921429931">
  <!-- svg-source:excalidraw -->
  
  <defs>
    <style class="style-fonts">
      @font-face {
        font-family: "Virgil";
        src: url("https://excalidraw.com/Virgil.woff2");
      }
      @font-face {
        font-family: "Cascadia";
        src: url("https://excalidraw.com/Cascadia.woff2");
      }
    </style>
    
  </defs>
  <rect x="0" y="0" width="459.58204388667934" height="631.873921429931" fill="#ffffff"></rect><g stroke-linecap="round" transform="translate(164.83819916525823 133.16731275601876) rotate(0 66.8933334765172 17.5)"><path d="M8.75 0 C42.42 0.71, 75.83 0.5, 125.04 0 M8.75 0 C45.18 -0.28, 80.89 -0.44, 125.04 0 M125.04 0 C130.59 0.12, 133.72 2.74, 133.79 8.75 M125.04 0 C130.88 0.48, 133.97 3.5, 133.79 8.75 M133.79 8.75 C133.38 13.15, 134.2 17.94, 133.79 26.25 M133.79 8.75 C133.77 15.15, 133.81 21.81, 133.79 26.25 M133.79 26.25 C134.1 32.44, 130.39 34.74, 125.04 35 M133.79 26.25 C134.02 32.33, 130.37 35.4, 125.04 35 M125.04 35 C85.5 34.72, 46.57 35.28, 8.75 35 M125.04 35 C94.39 35.1, 64.22 34.9, 8.75 35 M8.75 35 C3.08 34.53, -0.18 32.58, 0 26.25 M8.75 35 C3.39 35.12, 0.55 31.68, 0 26.25 M0 26.25 C-0.39 19.67, 0.48 12.75, 0 8.75 M0 26.25 C-0.23 19.51, -0.2 12.45, 0 8.75 M0 8.75 C-0.48 2.98, 3.04 0.09, 8.75 0 M0 8.75 C-0.44 2.39, 2.27 0.04, 8.75 0" stroke="#1e1e1e" stroke-width="1" fill="none"></path></g><g transform="translate(186.28158146990043 138.16731275601876) rotate(0 45.449951171875 12.5)"><text x="45.449951171875" y="0" font-family="Virgil, Segoe UI Emoji" font-size="20px" fill="#1e1e1e" text-anchor="middle" style="white-space: pre;" direction="ltr" dominant-baseline="text-before-edge">Visualizer</text></g><g transform="translate(88.29119027362333 54.49181938215372) rotate(0 141.49986267089844 25)"><text x="0" y="0" font-family="Virgil, Segoe UI Emoji" font-size="20px" fill="#1e1e1e" text-anchor="start" style="white-space: pre;" direction="ltr" dominant-baseline="text-before-edge">Visualizer sends a list of</text><text x="0" y="25" font-family="Virgil, Segoe UI Emoji" font-size="20px" fill="#1e1e1e" text-anchor="start" style="white-space: pre;" direction="ltr" dominant-baseline="text-before-edge">possible events to the client</text></g><g mask="url(#mask-tXGrLRCm7_55ootvxsl4R)" stroke-linecap="round"><g transform="translate(187.25722224421122 536.7086614349207) rotate(0 0.4603310880193021 -71.74289182405217)"><path d="M-0.11 -0.1 C0.04 -24.01, 0.86 -119.55, 1.03 -143.46 M0.11 0.17 C0.23 -23.78, 0.83 -119.73, 0.94 -143.66" stroke="#1e1e1e" stroke-width="1" fill="none"></path></g><g transform="translate(187.25722224421122 536.7086614349207) rotate(0 0.4603310880193021 -71.74289182405217)"><path d="M11.05 -115.41 C6.95 -126.22, 3.5 -137.38, 0.94 -143.66 M11.05 -115.41 C7.63 -124.56, 4.34 -133.95, 0.94 -143.66" stroke="#1e1e1e" stroke-width="1" fill="none"></path></g><g transform="translate(187.25722224421122 536.7086614349207) rotate(0 0.4603310880193021 -71.74289182405217)"><path d="M-9.47 -115.52 C-5.65 -126.26, -1.17 -137.39, 0.94 -143.66 M-9.47 -115.52 C-6.2 -124.62, -2.8 -133.98, 0.94 -143.66" stroke="#1e1e1e" stroke-width="1" fill="none"></path></g></g><mask id="mask-tXGrLRCm7_55ootvxsl4R"><rect x="0" y="0" fill="#fff" width="288.2274774596092" height="780.3064333138132"></rect><rect x="152.91238616782817" y="452.40977549547455" fill="#000" width="69.65992736816406" height="25" opacity="1"></rect></mask><g transform="translate(152.91238616782817 452.4097754954745) rotate(0 34.80516716440235 12.555994115394)"><text x="34.82996368408203" y="0" font-family="Virgil, Segoe UI Emoji" font-size="20px" fill="#1e1e1e" text-anchor="middle" style="white-space: pre;" direction="ltr" dominant-baseline="text-before-edge">Listens</text></g><g mask="url(#mask-giM2xb55CAdZkXiqN8kFV)" stroke-linecap="round"><g transform="translate(291.07453029178885 398.9324208484158) rotate(0 1.4324096617068278 68.88894336726302)"><path d="M-0.02 -0.08 C0.45 22.85, 2.33 114.7, 2.79 137.7 M-0.21 0.21 C0.31 23.16, 2.53 114.94, 3.07 137.86" stroke="#1e1e1e" stroke-width="1" fill="none"></path></g><g transform="translate(291.07453029178885 398.9324208484158) rotate(0 1.4324096617068278 68.88894336726302)"><path d="M-7.86 109.92 C-4.8 117.86, -1.59 125.99, 3.07 137.86 M-7.86 109.92 C-3.54 120.96, 0.72 131.92, 3.07 137.86" stroke="#1e1e1e" stroke-width="1" fill="none"></path></g><g transform="translate(291.07453029178885 398.9324208484158) rotate(0 1.4324096617068278 68.88894336726302)"><path d="M12.65 109.43 C9.72 117.51, 6.94 125.78, 3.07 137.86 M12.65 109.43 C8.89 120.68, 5.07 131.82, 3.07 137.86" stroke="#1e1e1e" stroke-width="1" fill="none"></path></g></g><mask id="mask-giM2xb55CAdZkXiqN8kFV"><rect x="0" y="0" fill="#fff" width="393.98529593798264" height="636.7086614349207"></rect><rect x="259.3399411910576" y="455.32054114166823" fill="#000" width="66.37994384765625" height="25" opacity="1"></rect></mask><g transform="translate(259.3399411910576 455.32054114166823) rotate(0 33.166998762438055 12.500823074010597)"><text x="33.189971923828125" y="0" font-family="Virgil, Segoe UI Emoji" font-size="20px" fill="#1e1e1e" text-anchor="middle" style="white-space: pre;" direction="ltr" dominant-baseline="text-before-edge">Events</text></g><g mask="url(#mask-noXhwehcPv_LwlROhIzIP)" stroke-linecap="round"><g transform="translate(230.85818753801257 175.77372130689378) rotate(0 1.8652551473334427 81.99068526724957)"><path d="M0 -0.14 C0.66 27.22, 3.26 136.77, 3.92 164.12 M-0.19 0.13 C0.45 27.45, 3.12 136.59, 3.79 163.92" stroke="#1e1e1e" stroke-width="1" fill="none"></path></g><g transform="translate(230.85818753801257 175.77372130689378) rotate(0 1.8652551473334427 81.99068526724957)"><path d="M-7.16 135.99 C-4.46 143.54, -0.94 151.19, 3.79 163.92 M-7.16 135.99 C-4.03 143.89, -0.93 152.01, 3.79 163.92" stroke="#1e1e1e" stroke-width="1" fill="none"></path></g><g transform="translate(230.85818753801257 175.77372130689378) rotate(0 1.8652551473334427 81.99068526724957)"><path d="M13.36 135.48 C10.49 143.17, 8.44 150.95, 3.79 163.92 M13.36 135.48 C10.59 143.5, 7.8 151.76, 3.79 163.92" stroke="#1e1e1e" stroke-width="1" fill="none"></path></g></g><mask id="mask-noXhwehcPv_LwlROhIzIP"><rect x="0" y="0" fill="#fff" width="334.79972779870934" height="439.7468527091426"></rect><rect x="206.03897201162266" y="245.26028700801817" fill="#000" width="53.57997131347656" height="25" opacity="1"></rect></mask><g transform="translate(206.03897201162266 245.26028700801817) rotate(0 26.684470673723354 12.504119566125183)"><text x="26.78998565673828" y="0" font-family="Virgil, Segoe UI Emoji" font-size="20px" fill="#1e1e1e" text-anchor="middle" style="white-space: pre;" direction="ltr" dominant-baseline="text-before-edge">Data</text></g><g stroke-linecap="round" transform="translate(172.674146880749 542.382102716655) rotate(0 66.8933334765172 17.5)"><path d="M8.75 0 C33.26 0.47, 57.59 -0.18, 125.04 0 M8.75 0 C52.97 -0.06, 96.95 0.36, 125.04 0 M125.04 0 C130.58 -0.51, 133.52 2.94, 133.79 8.75 M125.04 0 C130.28 0.55, 133.78 3.19, 133.79 8.75 M133.79 8.75 C133.56 13.42, 134.07 17.9, 133.79 26.25 M133.79 8.75 C133.65 14.3, 133.91 19.63, 133.79 26.25 M133.79 26.25 C134.11 32.35, 130.3 34.49, 125.04 35 M133.79 26.25 C133.55 31.84, 131.46 34.64, 125.04 35 M125.04 35 C86.79 34.73, 48.52 34.47, 8.75 35 M125.04 35 C98.24 35.21, 71.05 35.17, 8.75 35 M8.75 35 C2.43 34.58, -0.53 31.84, 0 26.25 M8.75 35 C2.98 34.51, -0.56 31.97, 0 26.25 M0 26.25 C0.19 19.84, -0.2 12.98, 0 8.75 M0 26.25 C0.14 22.36, -0.17 18.81, 0 8.75 M0 8.75 C-0.41 2.96, 3.47 0.04, 8.75 0 M0 8.75 C0.13 2.62, 2.41 0.57, 8.75 0" stroke="#1e1e1e" stroke-width="1" fill="none"></path></g><g transform="translate(212.5175078230865 547.382102716655) rotate(0 27.049972534179688 12.5)"><text x="27.049972534179688" y="0" font-family="Virgil, Segoe UI Emoji" font-size="20px" fill="#1e1e1e" text-anchor="middle" style="white-space: pre;" direction="ltr" dominant-baseline="text-before-edge">Client</text></g><g stroke-linecap="round" transform="translate(170.81715996838597 352.3247643864783) rotate(0 66.8933334765172 17.5)"><path d="M8.75 0 C55.22 -0.47, 100.63 0.32, 125.04 0 M8.75 0 C50.02 -0.07, 91.44 0.03, 125.04 0 M125.04 0 C130.66 0.51, 133.72 2.96, 133.79 8.75 M125.04 0 C130.63 -0.51, 133.94 3.09, 133.79 8.75 M133.79 8.75 C133.74 13.67, 133.49 18.62, 133.79 26.25 M133.79 8.75 C133.87 13.06, 133.95 16.67, 133.79 26.25 M133.79 26.25 C133.54 32.63, 131.4 34.93, 125.04 35 M133.79 26.25 C133.29 32.19, 131.46 35.19, 125.04 35 M125.04 35 C94.93 34.98, 65.6 35.81, 8.75 35 M125.04 35 C83.97 34.85, 43.32 34.87, 8.75 35 M8.75 35 C2.72 34.8, -0.38 31.81, 0 26.25 M8.75 35 C2.35 34.75, -0.42 31.87, 0 26.25 M0 26.25 C-0.31 22.62, 0.08 19.41, 0 8.75 M0 26.25 C0.07 21.15, 0.18 16.19, 0 8.75 M0 8.75 C-0.42 2.91, 3.39 -0.35, 8.75 0 M0 8.75 C-0.19 2.65, 2.87 -0.51, 8.75 0" stroke="#1e1e1e" stroke-width="1" fill="none"></path></g><g transform="translate(180.95055997322348 357.3247643864783) rotate(0 56.75993347167969 12.5)"><text x="56.75993347167969" y="0" font-family="Virgil, Segoe UI Emoji" font-size="20px" fill="#1e1e1e" text-anchor="middle" style="white-space: pre;" direction="ltr" dominant-baseline="text-before-edge">Subscription</text></g></svg>
